<svg xmlns="http://www.w3.org/2000/svg" width="780" height="238" viewBox="0 0 780 238"><title>  Ageno.pl logo</title><desc>  Ageno.pl logo</desc><g id="ageno-pl-logo" fill="none"><g id="ageno-logo"><path d="M137.8 238.2L138.1 238.2 275.9 238.2 207 119.2 138.1 0.1 69.1 119.2 0.2 238.2 69.4 238.2 86.4 208.9 103.6 179.2 120.8 208.9 137.8 238.2 137.8 238.2ZM138.1 179L103.6 179 120.8 149.2 138.1 119.5 155.3 149.2 172.5 179 138.1 179Z" id="sygnet" fill="#E76547"/><path d="M383.1 179.5L378.6 166.5 342 166.5 337.5 179.5 310.4 179.5 345.2 89.1 375.4 89.1 410.2 179.5 383.1 179.5ZM360.4 112.2L348.6 146.2 372 146.2 360.4 112.2ZM452.9 181.2C446.5 181.2 440.4 180.1 434.6 177.9 428.8 175.7 423.7 172.6 419.3 168.6 414.9 164.5 411.4 159.6 408.9 153.8 406.3 148.1 405 141.6 405 134.4 405 127.2 406.3 120.8 408.9 115 411.6 109.2 415.1 104.3 419.7 100.2 424.2 96.2 429.5 93 435.6 90.9 441.7 88.7 448.2 87.6 455.1 87.6 460.3 87.6 465 88.2 469.1 89.4 473.3 90.7 477 92.3 480.2 94.3 483.5 96.4 486.3 98.7 488.7 101.4 491.1 104 493.1 106.8 494.7 109.6L474.7 119.7C472.9 116.8 470.4 114.1 467 111.7 463.6 109.4 459.6 108.2 455.1 108.2 451.3 108.2 447.8 108.9 444.7 110.2 441.5 111.5 438.8 113.3 436.5 115.7 434.2 118 432.4 120.8 431.1 124 429.9 127.2 429.3 130.7 429.3 134.4 429.3 138.1 429.9 141.5 431.1 144.7 432.4 147.9 434.2 150.6 436.5 153 438.8 155.3 441.5 157.2 444.7 158.5 447.8 159.9 451.3 160.6 455.1 160.6 460.3 160.6 464.6 159.3 468.1 156.8 471.6 154.3 474.1 151.4 475.7 147.9L451.4 147.9 451.4 127.5 501.9 127.5C501.9 136.1 500.8 143.7 498.5 150.3 496.2 157 493 162.6 488.7 167.1 484.5 171.7 479.3 175.2 473.2 177.6 467.2 180 460.4 181.2 452.9 181.2ZM508.2 179.5L508.2 89.1 576.1 89.1 576.1 109.4 532.1 109.4 532.1 123.5 575.1 123.5 575.1 143.9 532.1 143.9 532.1 159.2 576.1 159.2 576.1 179.5 508.2 179.5ZM650.1 179.5L611 127.2 611 179.5 587.1 179.5 587.1 89.1 611.6 89.1 649.1 138.9 649.1 89.1 673.2 89.1 673.2 179.5 650.1 179.5ZM730.5 181.2C723.4 181.2 716.8 180 710.8 177.7 704.7 175.4 699.5 172.2 695.1 168.1 690.6 164 687.2 159 684.7 153.3 682.2 147.6 680.9 141.3 680.9 134.4 680.9 127.5 682.2 121.2 684.7 115.5 687.2 109.7 690.6 104.8 695.1 100.7 699.5 96.6 704.7 93.4 710.8 91.1 716.8 88.8 723.4 87.6 730.5 87.6 737.5 87.6 744.1 88.8 750.1 91.1 756.2 93.4 761.4 96.6 765.8 100.7 770.2 104.8 773.7 109.7 776.2 115.5 778.7 121.2 779.9 127.5 779.9 134.4 779.9 141.3 778.7 147.6 776.2 153.3 773.7 159 770.2 164 765.8 168.1 761.4 172.2 756.2 175.4 750.1 177.7 744.1 180 737.5 181.2 730.5 181.2ZM730.5 160.6C734.3 160.6 737.7 159.9 740.8 158.5 743.9 157.2 746.6 155.3 748.8 153 750.9 150.6 752.6 147.9 753.8 144.7 755 141.5 755.6 138.1 755.6 134.4 755.6 130.7 755 127.2 753.8 124.1 752.6 120.9 750.9 118.2 748.8 115.8 746.6 113.5 743.9 111.6 740.8 110.3 737.7 108.9 734.3 108.2 730.5 108.2 726.7 108.2 723.2 108.9 720.1 110.3 717 111.6 714.4 113.5 712.2 115.8 709.9 118.2 708.2 120.9 707 124.1 705.8 127.2 705.2 130.7 705.2 134.4 705.2 138.1 705.8 141.5 707 144.7 708.2 147.9 709.9 150.6 712.2 153 714.4 155.3 717 157.2 720.1 158.5 723.2 159.9 726.7 160.6 730.5 160.6Z" id="AGENO" fill="#2B3339"/></g></g></svg>
